<svg width="10" height="18" viewBox="0 0 10 18" fill="none" xmlns="http://www.w3.org/2000/svg">
<path d="M9.38375 16.9551C9.61809 16.7207 9.74973 16.4028 9.74973 16.0713C9.74973 15.7399 9.61809 15.422 9.38375 15.1876L3.19625 9.00006L9.38375 2.81256C9.61145 2.57681 9.73744 2.26106 9.73459 1.93331C9.73174 1.60556 9.60028 1.29205 9.36852 1.06029C9.13676 0.828527 8.82325 0.697067 8.4955 0.694219C8.16775 0.691372 7.852 0.817363 7.61625 1.04506L0.544999 8.11631C0.31066 8.35072 0.179016 8.66861 0.179016 9.00006C0.179016 9.33152 0.31066 9.6494 0.544999 9.88381L7.61625 16.9551C7.85066 17.1894 8.16854 17.321 8.5 17.321C8.83145 17.321 9.14934 17.1894 9.38375 16.9551Z" fill="white"/>
</svg>
