<svg width="7" height="9" viewBox="0 0 7 9" fill="none" xmlns="http://www.w3.org/2000/svg">
<path d="M4.872 3.38339L4.6258 3.42681L4.5386 2.17985C4.51085 1.78299 4.3286 1.42984 4.03195 1.19806C3.7353 0.966293 3.34854 0.874895 2.95676 0.943976C2.56498 1.01306 2.20027 1.23696 1.94286 1.56643C1.68545 1.89589 1.55643 2.30394 1.58418 2.70079L1.67138 3.94775L1.42517 3.99116C1.16409 4.03749 0.921125 4.18682 0.749577 4.40639C0.578029 4.62596 0.491913 4.89784 0.510122 5.16237L0.701952 7.90568C0.720732 8.17011 0.842311 8.40536 1.04001 8.55982C1.23772 8.71429 1.4954 8.77534 1.75652 8.72959L5.20334 8.12182C5.46442 8.07549 5.70739 7.92616 5.87894 7.70659C6.05049 7.48702 6.1366 7.21514 6.1184 6.95061L5.92656 4.20731C5.90779 3.94288 5.78621 3.70762 5.5885 3.55316C5.3908 3.3987 5.13312 3.33764 4.872 3.38339ZM4.13339 3.51363L2.16378 3.86093L2.07658 2.61397C2.05808 2.3494 2.1441 2.07737 2.3157 1.85773C2.48731 1.63808 2.73045 1.48881 2.99163 1.44276C3.25282 1.3967 3.51066 1.45764 3.70843 1.61215C3.9062 1.76666 4.0277 2.0021 4.0462 2.26667L4.13339 3.51363Z" fill="#797979"/>
</svg>
