<svg width="18" height="16" viewBox="0 0 18 16" fill="none" xmlns="http://www.w3.org/2000/svg">
<path d="M17.0201 12.4266L9.75508 0.857472C9.62137 0.645656 9.41162 0.493081 9.16892 0.431089C8.92622 0.369097 8.669 0.402392 8.45008 0.524137C8.30489 0.60548 8.1823 0.721771 8.09342 0.862472L0.970918 12.4316C0.771365 12.7559 0.666042 13.1293 0.666752 13.51C0.675746 14.072 0.907345 14.6076 1.31073 14.9991C1.71411 15.3906 2.25633 15.6061 2.81842 15.5983H15.1918C16.3726 15.5983 17.3334 14.6666 17.3334 13.515C17.3334 13.1316 17.2251 12.755 17.0193 12.4266M2.71925 12.8133L8.01925 4.64247V13.6375H3.27342C2.72508 13.6375 2.47925 13.2741 2.72009 12.8133M9.98008 4.64247L15.2801 12.8133C15.5243 13.2741 15.2743 13.6375 14.7259 13.6375H9.98008V4.64247Z" fill="white"/>
</svg>
