<svg width="365" height="392" viewBox="0 0 365 392" fill="none" xmlns="http://www.w3.org/2000/svg">
<path d="M182.5 3.85303V387.052L361.11 259.697L182.5 3.85303Z" fill="white"/>
<path d="M182.5 3.85303V387.052L117.304 340.572L108.228 386.2L51.4193 293.564L3.88989 259.697L182.5 3.85303Z" fill="#0098EA"/>
<path d="M364.271 257.467L311.595 182.23L185.661 1.66291L185.336 1.29788C185.336 1.29788 185.336 1.29788 185.134 1.29788V1.09509C184.918 0.9375 184.687 0.801643 184.445 0.689498H184.202C183.641 0.320932 183.003 0.0851315 182.338 0C182.004 0.0326316 181.676 0.114638 181.365 0.243352H181.041C180.685 0.423953 180.357 0.656298 180.069 0.932851L179.704 1.29788L0.68883 257.467C0.154755 258.316 -0.0455833 259.334 0.126561 260.323C0.298705 261.312 0.831101 262.202 1.62078 262.821L48.6234 296.687L105.351 389.08V389.323L105.594 389.648C105.75 389.818 105.927 389.967 106.121 390.094H106.323C106.527 390.226 106.744 390.335 106.972 390.418H107.296C107.632 390.461 107.972 390.461 108.309 390.418H109.403H109.646H110.173C110.365 390.379 110.545 390.296 110.699 390.175H110.942L145.587 366.245L180.271 391.189L180.758 391.432H181.163C181.591 391.619 182.053 391.715 182.52 391.715C182.987 391.715 183.449 391.619 183.878 391.432H184.323C184.493 391.368 184.656 391.286 184.81 391.189L363.379 262.821C364.162 262.196 364.687 261.303 364.851 260.315C365.016 259.326 364.809 258.312 364.271 257.467ZM147.856 358.417L121.761 339.679L178.61 44.6146V380.562L147.856 358.458V358.417ZM186.39 16.2235L250.411 107.886L186.39 153.88V16.2235ZM186.39 163.452L254.787 114.213L303.208 183.569L186.39 267.688V163.452ZM161.835 40.2342L50.0011 287.967L9.23845 258.765L161.835 40.2342ZM172.451 35.57L113.698 340.693L106.769 376.669L55.9575 293.726L172.451 35.57ZM186.39 380.562V277.138L307.665 189.896L355.721 258.846L186.39 380.562Z" fill="black"/>
</svg>
