<svg width="32" height="32" viewBox="0 0 32 32" fill="none" xmlns="http://www.w3.org/2000/svg">
<path d="M15.9989 31.9977C24.8348 31.9977 31.9977 24.8348 31.9977 15.9989C31.9977 7.16294 24.8348 0 15.9989 0C7.16294 0 0 7.16294 0 15.9989C0 24.8348 7.16294 31.9977 15.9989 31.9977Z" fill="#0098EA"/>
<path d="M15.999 5.31415V26.6249L25.9416 19.5401L15.999 5.31415Z" fill="white"/>
<path d="M15.9988 5.31415V26.6249L12.3695 24.04L11.8665 26.5753L8.70196 21.4258L6.05615 19.5401L15.9988 5.31415Z" fill="#0098EA"/>
<path d="M26.1195 19.4183L23.1872 15.2342L16.1769 5.18785L16.1566 5.16529V5.15402L16.1182 5.13146H16.1024C16.0823 5.12818 16.0617 5.12818 16.0415 5.13146H16.0212L15.9671 5.14274C15.9462 5.15205 15.9271 5.16503 15.9107 5.18108C15.904 5.18803 15.898 5.19559 15.8927 5.20364L5.88013 19.4183C5.85015 19.4653 5.83863 19.5218 5.8478 19.5767C5.85696 19.6317 5.88615 19.6814 5.92975 19.7161L8.55074 21.5995L11.7086 26.7377L11.7198 26.7513L11.7356 26.7693L11.7627 26.7941L11.7965 26.8099C11.7965 26.8099 11.7965 26.8099 11.8146 26.8099C11.834 26.8133 11.8538 26.8133 11.8732 26.8099H11.9116H11.9431L11.9725 26.7964L13.901 25.4678L15.834 26.855C15.8423 26.8608 15.8514 26.8654 15.8611 26.8685C15.8686 26.8698 15.8762 26.8698 15.8837 26.8685C15.9075 26.8789 15.9332 26.8843 15.9592 26.8843C15.9852 26.8843 16.0109 26.8789 16.0348 26.8685H16.0573C16.0668 26.865 16.0759 26.8604 16.0844 26.855L26.027 19.7116C26.0767 19.6834 26.1138 19.6376 26.131 19.5832C26.1481 19.5287 26.144 19.4699 26.1195 19.4183ZM14.0702 25.037L12.6176 23.9949L15.7889 7.572V26.264L14.0702 25.037ZM16.2152 5.99986L19.7768 11.0975L16.2152 13.6553V5.99986ZM16.2152 14.1876L20.0249 11.4516L22.7316 15.3064L16.2152 19.98V14.1876ZM14.8619 7.33742L8.63645 21.1191L6.35606 19.4905L14.8619 7.33742ZM15.4506 7.07803L12.18 24.0355L11.7943 26.0385L8.95675 21.4281L15.4506 7.07803ZM16.2265 26.264V20.5123L22.9797 15.6605L25.6549 19.495L16.2265 26.264Z" fill="black"/>
</svg>
