<svg width="152" height="132" viewBox="0 0 152 132" fill="none" xmlns="http://www.w3.org/2000/svg">
<path d="M85.2908 14.9772C84.628 13.7119 82.7106 14.5475 83.1861 15.8944L116.458 110.135C116.628 110.617 116.953 111.028 117.382 111.304L141.445 126.808C142.438 127.449 143.636 126.354 143.087 125.307L85.2908 14.9772Z" fill="url(#paint0_linear_35_103)"/>
<path d="M23.3928 117.235C21.9712 117.34 21.9705 119.425 23.392 119.531L140.468 128.214C142.959 128.399 143.919 125.039 141.707 123.88L117.205 111.039C116.445 110.64 115.587 110.462 114.731 110.525L23.3928 117.235Z" fill="url(#paint1_linear_35_103)"/>
<path d="M81.4373 14.9935C82.4324 13.2957 84.9611 13.5488 85.6001 15.4101L117.69 108.888C118.174 110.299 117.208 111.792 115.722 111.927L23.9348 120.299C22.0694 120.469 20.7927 118.459 21.7399 116.843L81.4373 14.9935Z" fill="url(#paint2_linear_35_103)"/>
<defs>
<linearGradient id="paint0_linear_35_103" x1="63.6935" y1="8.6818" x2="177.1" y2="14.8227" gradientUnits="userSpaceOnUse">
<stop stop-color="#D712C2"/>
<stop offset="1" stop-color="#6D01A5"/>
</linearGradient>
<linearGradient id="paint1_linear_35_103" x1="21.1413" y1="99.0915" x2="154.045" y2="106.285" gradientUnits="userSpaceOnUse">
<stop stop-color="#A6068E"/>
<stop offset="1" stop-color="#6D01A5"/>
</linearGradient>
<linearGradient id="paint2_linear_35_103" x1="22.2369" y1="131.256" x2="97.9322" y2="51.9822" gradientUnits="userSpaceOnUse">
<stop stop-color="#F5F1E5"/>
<stop offset="0.515" stop-color="#FF4AF5"/>
<stop offset="0.995" stop-color="#2C5DD9"/>
</linearGradient>
</defs>
</svg>
