<svg width="37" height="32" viewBox="0 0 37 32" fill="none" xmlns="http://www.w3.org/2000/svg">
<path d="M20.2546 3.73461C20.0901 3.43691 19.6381 3.64594 19.7584 3.96407L28.1767 26.2227C28.2197 26.3363 28.2992 26.4324 28.4028 26.496L34.213 30.0597C34.4529 30.2069 34.7322 29.94 34.5961 29.6936L20.2546 3.73461Z" fill="url(#paint0_linear_28_913)"/>
<path d="M6.05981 28.4044C5.72195 28.4368 5.73279 28.9333 6.07174 28.9509L33.9879 30.3995C34.5819 30.4303 34.7927 29.6255 34.2598 29.3612L28.3594 26.4338C28.1762 26.3429 27.9712 26.3051 27.7677 26.3246L6.05981 28.4044Z" fill="url(#paint1_linear_28_913)"/>
<path d="M19.3373 3.75882C19.5652 3.34939 20.1685 3.39628 20.3305 3.836L28.4633 25.9191C28.5861 26.2526 28.364 26.6129 28.0109 26.6531L6.20498 29.1309C5.76182 29.1813 5.44728 28.7094 5.66423 28.3197L19.3373 3.75882Z" fill="url(#paint2_linear_28_913)"/>
<defs>
<linearGradient id="paint0_linear_28_913" x1="28.0576" y1="26.0042" x2="30.9673" y2="15.8519" gradientUnits="userSpaceOnUse">
<stop stop-color="#6D6D6D"/>
<stop offset="1" stop-color="#292929"/>
</linearGradient>
<linearGradient id="paint1_linear_28_913" x1="6.53219" y1="28.593" x2="33.1078" y2="29.9143" gradientUnits="userSpaceOnUse">
<stop stop-color="#2D2D2D"/>
<stop offset="1" stop-color="#545454"/>
</linearGradient>
<linearGradient id="paint2_linear_28_913" x1="5.85868" y1="31.7481" x2="23.4594" y2="12.477" gradientUnits="userSpaceOnUse">
<stop stop-color="#7E7E7E"/>
<stop offset="1" stop-color="#2C2C2C"/>
</linearGradient>
</defs>
</svg>
