<svg width="95" height="83" viewBox="0 0 95 83" fill="none" xmlns="http://www.w3.org/2000/svg">
<path d="M52.8809 9.65644C52.4681 8.8684 51.2739 9.38879 51.5701 10.2277L72.2919 68.9216C72.3977 69.2212 72.6001 69.4773 72.8673 69.6494L87.8538 79.3055C88.4727 79.7043 89.2186 79.0226 88.8769 78.3704L52.8809 9.65644Z" fill="url(#paint0_linear_2002_58002)"/>
<path d="M14.3303 73.3433C13.445 73.4083 13.4445 74.7072 14.3298 74.7729L87.2454 80.1809C88.797 80.296 89.395 78.2038 88.0169 77.4815L72.7572 69.4841C72.2835 69.2358 71.7497 69.125 71.2163 69.1642L14.3303 73.3433Z" fill="url(#paint1_linear_2002_58002)"/>
<path d="M50.4807 9.66663C51.1005 8.60923 52.6754 8.76684 53.0734 9.92608L73.059 68.1444C73.3608 69.0236 72.759 69.9531 71.8333 70.0375L14.6678 75.2515C13.5061 75.3575 12.7109 74.1054 13.3008 73.099L50.4807 9.66663Z" fill="url(#paint2_linear_2002_58002)"/>
<defs>
<linearGradient id="paint0_linear_2002_58002" x1="64.4006" y1="61.0321" x2="79.0671" y2="52.7407" gradientUnits="userSpaceOnUse">
<stop stop-color="#474AC8"/>
<stop offset="1" stop-color="#7F21A6"/>
</linearGradient>
<linearGradient id="paint1_linear_2002_58002" x1="15.5547" y1="73.8637" x2="84.9721" y2="78.8612" gradientUnits="userSpaceOnUse">
<stop stop-color="#0C70EC"/>
<stop offset="1" stop-color="#A6068E"/>
</linearGradient>
<linearGradient id="paint2_linear_2002_58002" x1="13.6104" y1="82.0753" x2="60.7539" y2="32.7034" gradientUnits="userSpaceOnUse">
<stop stop-color="#F5F1E5"/>
<stop offset="0.495" stop-color="#007DF5"/>
</linearGradient>
</defs>
</svg>
